<svg width="62" height="39" viewBox="0 0 62 39" fill="none" xmlns="http://www.w3.org/2000/svg">
<path fill-rule="evenodd" clip-rule="evenodd" d="M19.689 13.6242C19.2711 14.118 18.6026 14.5078 17.934 14.452C17.8505 13.7841 18.1777 13.0746 18.5609 12.6362C18.9786 12.1283 19.7099 11.7665 20.3018 11.7388C20.3714 12.4344 20.0997 13.1162 19.689 13.6242Z" fill="black"/>
<path fill-rule="evenodd" clip-rule="evenodd" d="M20.2948 14.8864C19.3268 14.8308 18.4982 15.4359 18.0385 15.4359C17.5719 15.4359 16.8687 14.9142 16.1027 14.9282C15.1068 14.942 14.1807 15.5056 13.6723 16.403C12.6277 18.1979 13.4007 20.8555 14.4105 22.3165C14.9048 23.04 15.4968 23.8331 16.2767 23.8054C17.0149 23.7776 17.3073 23.3254 18.1987 23.3254C19.097 23.3254 19.3547 23.8054 20.1345 23.7915C20.9424 23.7776 21.4508 23.0679 21.9451 22.3444C22.5093 21.5234 22.739 20.7234 22.753 20.6816C22.739 20.6676 21.193 20.0764 21.1792 18.2953C21.1653 16.8065 22.3978 16.0968 22.4535 16.0552C21.7572 15.0254 20.6708 14.9142 20.2948 14.8864Z" fill="black"/>
<path fill-rule="evenodd" clip-rule="evenodd" d="M29.5078 18.5945H27.5718V14.2881H29.5147C30.977 14.2881 31.8128 15.0673 31.8128 16.4377C31.8128 17.8083 30.977 18.5945 29.5078 18.5945ZM29.9604 12.8688H25.8867V23.7149H27.5718V20.0068H29.9047C32.0355 20.0068 33.5328 18.5459 33.5328 16.4308C33.5328 14.3159 32.0634 12.8688 29.9604 12.8688Z" fill="black"/>
<path fill-rule="evenodd" clip-rule="evenodd" d="M39.0689 20.7721C39.0689 21.7879 38.2054 22.5114 37.0633 22.5114C36.1651 22.5114 35.5941 22.0799 35.5941 21.419C35.5941 20.7372 36.1442 20.3406 37.1957 20.2781L39.0689 20.1598V20.7721ZM37.5091 15.7421C35.7193 15.7421 34.3962 16.7648 34.3476 18.1701H35.8655C35.9909 17.5022 36.6107 17.064 37.4603 17.064C38.4909 17.064 39.0689 17.544 39.0689 18.4274V19.0258L36.9658 19.1511C35.0091 19.2694 33.9506 20.0693 33.9506 21.4608C33.9506 22.8661 35.0438 23.7984 36.6107 23.7984C37.6692 23.7984 38.651 23.2627 39.0968 22.414H39.1315V23.7149H40.6914V18.3162C40.6914 16.7508 39.4379 15.7421 37.5091 15.7421Z" fill="black"/>
<path fill-rule="evenodd" clip-rule="evenodd" d="M42.7736 26.6647C44.417 26.6647 45.1899 26.0387 45.8653 24.1392L48.8251 15.8466H47.1119L45.1272 22.2539H45.0924L43.1077 15.8466H41.346L44.2011 23.7428L44.048 24.2227C43.7902 25.0368 43.3725 25.3499 42.6272 25.3499C42.495 25.3499 42.2374 25.3359 42.1329 25.322V26.6229C42.2304 26.6508 42.6482 26.6647 42.7736 26.6647Z" fill="black"/>
</svg>
