<svg width="29" height="13" viewBox="0 0 29 13" fill="none" xmlns="http://www.w3.org/2000/svg">
<mask id="mask0" mask-type="alpha" maskUnits="userSpaceOnUse" x="0" y="0" width="29" height="13">
<path fill-rule="evenodd" clip-rule="evenodd" d="M0 0.000183105H28.327V12.9632H0V0.000183105Z" fill="white"/>
</mask>
<g mask="url(#mask0)">
<path fill-rule="evenodd" clip-rule="evenodd" d="M28.1923 6.14154C28.26 6.22702 28.3065 6.32511 28.3156 6.44015C28.3164 6.45196 28.3246 6.46142 28.3246 6.47363C28.3246 6.47639 28.327 6.47836 28.327 6.48151C28.327 6.48466 28.325 6.48742 28.325 6.49096C28.325 6.49805 28.3211 6.50396 28.3207 6.51066C28.3136 6.65051 28.2588 6.77657 28.1702 6.87348C28.1631 6.88175 28.1667 6.89436 28.1584 6.90263C28.1505 6.91051 28.1379 6.90696 28.13 6.91445C28.1218 6.92114 28.1092 6.91957 28.1017 6.92627L21.6446 12.7948C21.4201 13.0193 21.0553 13.0193 20.8307 12.7948C20.6054 12.5694 20.6054 12.2062 20.8307 11.9813L26.2328 7.07005H0.589727C0.263545 7.07005 0 6.80611 0 6.48151C0 6.15651 0.263545 5.89218 0.589727 5.89218H26.2328L20.8307 0.982114C20.6054 0.757569 20.6054 0.393175 20.8307 0.168236C21.0553 -0.0559158 21.4201 -0.0559158 21.6446 0.168236L28.069 6.00721C28.0784 6.0143 28.0835 6.02572 28.0922 6.03321C28.1123 6.04857 28.1403 6.04227 28.1584 6.06039C28.1808 6.08324 28.1742 6.11672 28.1923 6.14154Z" fill="white"/>
</g>
</svg>
