<svg width="62" height="39" viewBox="0 0 62 39" fill="none" xmlns="http://www.w3.org/2000/svg">
<path fill-rule="evenodd" clip-rule="evenodd" d="M30.035 14.3628V17.9367H32.2426C32.732 17.9512 33.2049 17.759 33.5451 17.4074C34.2367 16.7356 34.2524 15.6309 33.58 14.9399C33.5687 14.9282 33.557 14.9166 33.5451 14.9051C33.2091 14.546 32.7348 14.3481 32.2426 14.362H30.035V14.3628ZM30.035 19.1947V23.3404H28.7186V13.1023H32.2099C33.0517 13.0848 33.8657 13.4038 34.4708 13.9887C35.083 14.5389 35.4274 15.3266 35.4152 16.1493C35.4327 16.9766 35.0878 17.7702 34.4708 18.3222C33.8604 18.9039 33.1066 19.1944 32.2099 19.1939H30.035V19.1947Z" fill="black"/>
<path fill-rule="evenodd" clip-rule="evenodd" d="M36.7456 21.1961C36.7437 21.5356 36.9065 21.8551 37.1822 22.0538C37.4733 22.2827 37.8347 22.4037 38.2052 22.3969C38.7607 22.396 39.2932 22.175 39.6858 21.7826C40.1218 21.3726 40.3399 20.8913 40.3399 20.3391C39.9295 20.0124 39.3572 19.849 38.6229 19.849C38.0881 19.849 37.6422 19.9778 37.2853 20.2353C36.9246 20.4967 36.7456 20.8146 36.7456 21.1961ZM38.4487 16.1068C39.422 16.1068 40.19 16.3667 40.7529 16.886C41.3161 17.4057 41.5974 18.118 41.5969 19.0232V23.3405H40.3377V22.3683H40.2805C39.7352 23.1689 39.0103 23.5692 38.1054 23.5692C37.333 23.5692 36.6867 23.3405 36.1668 22.883C35.6613 22.4576 35.3746 21.8275 35.3865 21.1674C35.3865 20.4425 35.6609 19.8662 36.2093 19.438C36.7575 19.01 37.4897 18.7955 38.4055 18.7944C39.1871 18.7944 39.8308 18.9374 40.3368 19.2232V18.9227C40.3397 18.4728 40.1401 18.0453 39.793 17.7586C39.4449 17.4447 38.9912 17.2736 38.5225 17.279C37.787 17.279 37.2051 17.5889 36.7767 18.2086L35.6173 17.4793C36.255 16.5642 37.1989 16.1068 38.4487 16.1068Z" fill="black"/>
<path fill-rule="evenodd" clip-rule="evenodd" d="M48.8249 16.3356L44.4293 26.4283H43.0703L44.7015 22.8968L41.811 16.3356H43.2418L45.3311 21.3677H45.3598L47.3917 16.3356H48.8249Z" fill="black"/>
<path fill-rule="evenodd" clip-rule="evenodd" d="M24.614 17.1051H19.062V19.3703H22.2418C22.1104 20.1013 21.6855 20.747 21.066 21.1576V21.1585C20.5378 21.5162 19.8575 21.7205 19.062 21.7205C17.5263 21.7205 16.223 20.6862 15.7569 19.2927C15.5106 18.5624 15.5106 17.7715 15.7569 17.0413C16.223 15.6477 17.5263 14.6135 19.062 14.6135C19.9015 14.5999 20.7128 14.9167 21.3204 15.4957L23.0007 13.8171C21.9352 12.8173 20.5235 12.2684 19.062 12.2854C16.8364 12.2854 14.8012 13.5394 13.8019 15.526C12.9662 17.1876 12.9662 19.1463 13.8019 20.8081C14.8012 22.7947 16.8364 24.0485 19.062 24.0487C20.6508 24.0487 21.9884 23.5274 22.9638 22.6288L22.9629 22.628H22.9638C24.075 21.6045 24.7152 20.0908 24.7152 18.301C24.7158 17.9002 24.6818 17.5001 24.614 17.1051Z" fill="black"/>
</svg>
