<svg width="20" height="20" viewBox="0 0 20 20" fill="none" xmlns="http://www.w3.org/2000/svg">
<path fill-rule="evenodd" clip-rule="evenodd" d="M10.4 0.799988C7.75999 0.799988 7.43999 0.799988 6.47999 0.879988C5.43999 0.879988 4.71999 1.03999 4.07999 1.27999C3.51999 1.51999 2.95999 1.83999 2.39999 2.39999C1.83999 2.95999 1.51999 3.43999 1.27999 4.07999C1.03999 4.71999 0.879988 5.43999 0.879988 6.47999C0.799988 7.43999 0.799988 7.75999 0.799988 10.4C0.799988 13.04 0.799988 13.36 0.879988 14.32C0.959988 15.36 1.11999 16 1.35999 16.64C1.51999 17.28 1.83999 17.84 2.39999 18.4C2.95999 18.96 3.43999 19.28 4.07999 19.52C4.71999 19.76 5.35999 19.92 6.39999 20H10.4C13.04 20 13.36 20 14.32 19.92C15.36 19.84 16 19.68 16.64 19.44C17.28 19.2 17.84 18.88 18.32 18.32C18.88 17.76 19.2 17.28 19.44 16.64C19.68 16 19.84 15.36 19.92 14.32C20 13.36 20 13.04 20 10.4C20 7.75999 20 7.43999 19.92 6.47999C19.84 5.43999 19.68 4.79999 19.44 4.15999C19.28 3.51999 18.96 2.95999 18.4 2.39999C17.84 1.83999 17.36 1.51999 16.72 1.27999C16.08 1.03999 15.44 0.879988 14.4 0.799988H10.4ZM10.4 2.55999C12.96 2.55999 13.28 2.55999 14.32 2.63999C15.28 2.71999 15.76 2.79999 16.08 2.95999C16.56 3.11999 16.88 3.35999 17.2 3.67999C17.52 3.99999 17.76 4.31999 17.92 4.79999C18.08 5.11999 18.24 5.67999 18.24 6.55999C18.32 7.59999 18.32 7.83999 18.32 10.4C18.32 12.96 18.32 13.28 18.24 14.24C18.1721 15.0547 18.0466 15.5237 17.9613 15.8425L17.9612 15.8426C17.946 15.8995 17.9321 15.9516 17.92 16C17.76 16.48 17.52 16.8 17.2 17.12C16.88 17.44 16.56 17.68 16.08 17.84C15.76 18 15.2 18.16 14.32 18.16C13.28 18.24 13.04 18.24 10.4 18.24C7.83999 18.24 7.51999 18.24 6.47999 18.16C5.66534 18.0921 5.19634 17.9666 4.87745 17.8813L4.87743 17.8813L4.87734 17.8812C4.82049 17.866 4.76841 17.8521 4.71999 17.84C4.23999 17.68 3.91999 17.44 3.59999 17.12C3.27999 16.8 3.03999 16.48 2.87999 16C2.71999 15.68 2.55999 15.12 2.55999 14.24C2.55999 13.8351 2.54787 13.5515 2.53306 13.2051C2.50983 12.6616 2.47999 11.9635 2.47999 10.4C2.47999 7.83999 2.47999 7.51999 2.55999 6.47999C2.55999 5.59999 2.71999 5.03999 2.87999 4.71999C3.03999 4.23999 3.27999 3.91999 3.59999 3.59999C3.91999 3.27999 4.23999 3.03999 4.71999 2.87999C5.03999 2.71999 5.59999 2.55999 6.47999 2.55999C7.51999 2.47999 7.75999 2.47999 10.4 2.55999ZM5.43999 10.4C5.43999 7.67999 7.67999 5.43999 10.4 5.43999C13.12 5.43999 15.36 7.67999 15.36 10.4C15.36 13.12 13.12 15.36 10.4 15.36C7.67999 15.36 5.43999 13.12 5.43999 10.4ZM10.4 13.6C8.63999 13.6 7.19999 12.16 7.19999 10.4C7.19999 8.63999 8.63999 7.19999 10.4 7.19999C12.16 7.19999 13.6 8.63999 13.6 10.4C13.6 12.16 12.16 13.6 10.4 13.6ZM15.52 6.39999C16.16 6.39999 16.64 5.91999 16.64 5.27999C16.64 4.63999 16.16 4.15999 15.52 4.15999C14.88 4.15999 14.4 4.63999 14.4 5.27999C14.4 5.91999 14.88 6.39999 15.52 6.39999Z" fill="black"/>
</svg>
