<svg width="54" height="15" viewBox="0 0 54 15" fill="none" xmlns="http://www.w3.org/2000/svg">
<path fill-rule="evenodd" clip-rule="evenodd" d="M20.9115 4.17426H18.0466C17.8504 4.17426 17.6839 4.31682 17.6531 4.51041L16.4946 11.8569C16.4717 12.0017 16.5837 12.1329 16.7305 12.1329H18.0986C18.2944 12.1329 18.4609 11.9904 18.4917 11.7972L18.8045 9.81489C18.8347 9.6213 19.0018 9.47874 19.1976 9.47874H20.1042C21.9913 9.47874 23.0807 8.56567 23.365 6.75532C23.4932 5.96395 23.3703 5.34207 22.9999 4.9065C22.5923 4.42758 21.87 4.17426 20.9115 4.17426ZM21.2422 6.85758C21.0855 7.88608 20.3002 7.88608 19.5404 7.88608H19.1083L19.4114 5.96577C19.4296 5.84974 19.5297 5.76449 19.6471 5.76449H19.8454C20.3626 5.76449 20.851 5.76449 21.1029 6.05892C21.2536 6.2351 21.2989 6.49673 21.2422 6.85758ZM29.4749 6.82458H28.1031C27.9857 6.82458 27.8854 6.91003 27.867 7.02627L27.8069 7.4098L27.7111 7.27089C27.4136 6.83976 26.7514 6.69538 26.0901 6.69538C24.5746 6.69538 23.2798 7.84416 23.0279 9.45505C22.8969 10.2588 23.083 11.0269 23.5388 11.5629C23.9573 12.0552 24.5545 12.2603 25.2665 12.2603C26.4884 12.2603 27.166 11.4756 27.166 11.4756L27.1046 11.8569C27.0817 12.0017 27.1935 12.1329 27.3405 12.1329H28.576C28.772 12.1329 28.9386 11.9906 28.9692 11.7972L29.711 7.10058C29.7339 6.9558 29.6217 6.82458 29.4749 6.82458ZM27.5631 9.49494C27.4302 10.2788 26.8083 10.8053 26.0143 10.8053C25.6166 10.8053 25.2979 10.6769 25.0932 10.4347C24.8903 10.1946 24.8139 9.85215 24.8783 9.47125C25.0016 8.69406 25.6338 8.15115 26.4157 8.15115C26.8053 8.15115 27.1216 8.28035 27.3302 8.52497C27.5404 8.77141 27.6232 9.11566 27.5631 9.49494ZM36.7819 6.82458H35.4031C35.271 6.82458 35.1477 6.88998 35.0738 6.99933L33.1713 9.80092L32.3656 7.10868C32.3149 6.9402 32.1596 6.82458 31.9838 6.82458H30.6283C30.4649 6.82458 30.3495 6.98577 30.4023 7.14048L31.9207 11.5977L30.4924 13.6126C30.3806 13.7707 30.4936 13.9894 30.6874 13.9894H32.065C32.1955 13.9894 32.3178 13.9254 32.3923 13.8183L36.9781 7.19961C37.0876 7.04105 36.9747 6.82458 36.7819 6.82458Z" fill="black"/>
<path fill-rule="evenodd" clip-rule="evenodd" d="M41.3464 4.17426H38.4814C38.2852 4.17426 38.1186 4.31682 38.0878 4.51041L36.9295 11.8569C36.9066 12.0017 37.0188 12.1329 37.1652 12.1329H38.6353C38.7724 12.1329 38.8891 12.0333 38.9105 11.898L39.2394 9.81489C39.2696 9.6213 39.4364 9.47874 39.6323 9.47874H40.5388C42.4261 9.47874 43.5154 8.56567 43.7997 6.75532C43.9281 5.96395 43.8052 5.34207 43.4346 4.9065C43.0272 4.42758 42.3048 4.17426 41.3464 4.17426ZM41.6769 6.85758C41.5202 7.88608 40.7349 7.88608 39.9753 7.88608H39.543L39.8463 5.96577C39.8643 5.84974 39.9646 5.76449 40.082 5.76449H40.2803C40.7974 5.76449 41.2857 5.76449 41.5376 6.05892C41.6882 6.2351 41.7338 6.49673 41.6769 6.85758ZM49.9097 6.82458H48.538C48.4206 6.82458 48.3201 6.91003 48.3019 7.02627L48.2415 7.4098L48.1456 7.27089C47.8485 6.83976 47.1863 6.69538 46.5249 6.69538C45.0094 6.69538 43.7147 7.84416 43.4627 9.45505C43.3317 10.2588 43.5178 11.0269 43.9737 11.5629C44.3922 12.0552 44.9894 12.2603 45.7014 12.2603C46.9233 12.2603 47.6008 11.4756 47.6008 11.4756L47.5393 11.8569C47.5166 12.0017 47.6284 12.1329 47.7754 12.1329H49.0106C49.2067 12.1329 49.3735 11.9906 49.4041 11.7972L50.1459 7.10058C50.1687 6.9558 50.0565 6.82458 49.9097 6.82458ZM47.9979 9.49494C47.8651 10.2788 47.243 10.8053 46.4492 10.8053C46.0513 10.8053 45.7326 10.6769 45.5278 10.4347C45.3247 10.1946 45.2488 9.85215 45.313 9.47125C45.4363 8.69406 46.0687 8.15115 46.8506 8.15115C47.24 8.15115 47.5563 8.28035 47.7651 8.52497C47.9753 8.77141 48.0581 9.11566 47.9979 9.49494ZM51.5267 4.37615L50.351 11.8571C50.3281 12.0019 50.4399 12.1331 50.5867 12.1331H51.7695C51.9651 12.1331 52.1322 11.9906 52.1625 11.797L53.3221 4.45047C53.3449 4.30548 53.233 4.17446 53.0859 4.17446H51.7626C51.645 4.17446 51.5447 4.25971 51.5267 4.37615Z" fill="black"/>
<path fill-rule="evenodd" clip-rule="evenodd" d="M4.92868 4.04203C4.95602 3.86849 5.0678 3.72613 5.21765 3.65404C5.2861 3.62164 5.36203 3.60342 5.44182 3.60342H8.69559C9.08074 3.60342 9.44018 3.62853 9.76843 3.68138C9.8626 3.69657 9.95392 3.71398 10.0426 3.73403C10.1311 3.75347 10.2174 3.77575 10.3008 3.80005C10.3425 3.8122 10.3834 3.82475 10.4239 3.83812C10.5853 3.89198 10.7356 3.95476 10.8737 4.02826C11.0367 2.98924 10.8727 2.28251 10.3107 1.64241C9.69189 0.937506 8.5747 0.635376 7.14464 0.635376H2.9942C2.70199 0.635376 2.45332 0.848203 2.40776 1.13677L0.679627 12.0959C0.645404 12.3123 0.812669 12.5077 1.03137 12.5077H3.5936L4.23715 8.42636L4.92868 4.04203Z" stroke="black" stroke-width="0.5"/>
<path d="M10.8738 4.0282V4.0282C10.8612 4.10758 10.8475 4.18817 10.8313 4.2712C10.2843 7.08129 8.41138 8.05309 6.01945 8.05309H4.80181C4.5094 8.05309 4.26276 8.26592 4.2174 8.55448L3.5937 12.5077L3.41692 13.6291C3.38674 13.8183 3.53315 13.9896 3.72451 13.9896H5.88438C6.13993 13.9896 6.35762 13.8035 6.39751 13.5512L6.41857 13.441L6.8256 10.8614L6.85192 10.7188C6.89182 10.4663 7.1093 10.2802 7.36506 10.2802H7.68825C9.78048 10.2802 11.4185 9.43029 11.8974 6.97194C12.0973 5.94466 11.9938 5.08687 11.4653 4.48443C11.3049 4.30198 11.1058 4.15112 10.8738 4.0282" stroke="black" stroke-width="0.5"/>
<path d="M10.3009 3.79988C10.2174 3.77538 10.1314 3.7533 10.0429 3.73366C9.95397 3.71422 9.86244 3.69681 9.76868 3.68182C9.43982 3.62856 9.08099 3.60345 8.69503 3.60345H5.44186C5.36167 3.60345 5.28553 3.62148 5.2177 3.65428C5.06724 3.72637 4.95607 3.86812 4.92893 4.04227L4.23739 8.4266L4.21735 8.55438C4.26291 8.26581 4.50955 8.05299 4.80176 8.05299H6.0196C8.41153 8.05299 10.2842 7.08159 10.8314 4.2713C10.8476 4.18807 10.8614 4.10768 10.8739 4.0281C10.7354 3.95499 10.5854 3.89181 10.4238 3.83835C10.3837 3.82499 10.3428 3.81203 10.3009 3.79988" stroke="black" stroke-width="0.5"/>
</svg>
