<svg width="16" height="16" viewBox="0 0 16 16" fill="none" xmlns="http://www.w3.org/2000/svg">
<mask id="mask0" mask-type="alpha" maskUnits="userSpaceOnUse" x="0" y="0" width="16" height="16">
<path fill-rule="evenodd" clip-rule="evenodd" d="M0 0.000183105H15.9913V15.9915H0V0.000183105Z" fill="white"/>
</mask>
<g mask="url(#mask0)">
<path fill-rule="evenodd" clip-rule="evenodd" d="M7 1C3.68633 1 1 3.68667 1 7.00033C1 10.3137 3.68633 12.9997 7 12.9997C10.3137 12.9997 13 10.3137 13 7.00033C13 3.68667 10.3137 1 7 1ZM7 14.0003C3.134 14.0003 0 10.8657 0 7.00033C0 3.134 3.134 0 7 0C10.866 0 14 3.134 14 7.00033C14 10.8657 10.866 14.0003 7 14.0003ZM15.8417 15.8413C15.642 16.0417 15.3183 16.0417 15.1183 15.8413L12.278 13.001C12.5343 12.7757 12.7753 12.5343 13.001 12.278L15.8417 15.1183C16.0413 15.318 16.0413 15.6417 15.8417 15.8413Z" fill="#12110C"/>
</g>
</svg>
