<svg width="32" height="25" viewBox="0 0 32 25" fill="none" xmlns="http://www.w3.org/2000/svg">
<path fill-rule="evenodd" clip-rule="evenodd" d="M6.16125 24.1905V22.6105C6.16125 22.0154 5.77986 21.6152 5.16503 21.6097C4.84196 21.6043 4.50854 21.7043 4.27511 22.0576C4.10046 21.7786 3.82521 21.6097 3.43842 21.6097C3.16811 21.6097 2.90366 21.6887 2.69692 21.9835V21.673H2.14581V24.1905H2.70186V22.7949C2.70186 22.3578 2.94548 22.1257 3.32209 22.1257C3.68759 22.1257 3.87258 22.3626 3.87258 22.7895V24.1905H4.42909V22.7949C4.42909 22.3578 4.68304 22.1257 5.0487 22.1257C5.42469 22.1257 5.60474 22.3626 5.60474 22.7895V24.1905H6.16125ZM14.3929 21.673H13.4924V20.9092H12.9359V21.673H12.4223V22.1734H12.9359V23.3217C12.9359 23.906 13.1638 24.2538 13.8149 24.2538C14.0539 24.2538 14.3291 24.1803 14.5038 24.0591L14.3449 23.59C14.1806 23.6847 14.0005 23.7324 13.8575 23.7324C13.5822 23.7324 13.4924 23.5636 13.4924 23.311V22.1734H14.3929V21.673ZM19.0909 21.6097C18.7732 21.6097 18.5664 21.7574 18.4239 21.9788V21.673H17.8783V24.1905H18.4288V22.7792C18.4288 22.3626 18.6089 22.1312 18.969 22.1312C19.0805 22.1312 19.197 22.1469 19.3135 22.1945L19.4832 21.6784C19.3613 21.6308 19.2024 21.6097 19.0909 21.6097ZM11.9877 21.8732C11.7226 21.6996 11.3577 21.6097 10.9552 21.6097C10.3137 21.6097 9.90083 21.9154 9.90083 22.4157C9.90083 22.8262 10.2082 23.0795 10.7744 23.1583L11.0345 23.1951C11.3365 23.2375 11.479 23.3163 11.479 23.4585C11.479 23.6534 11.2777 23.7643 10.9018 23.7643C10.5204 23.7643 10.2452 23.6431 10.0597 23.5009L9.80008 23.9271C10.102 24.1483 10.4834 24.2538 10.8963 24.2538C11.6276 24.2538 12.0513 23.9114 12.0513 23.4322C12.0513 22.9896 11.7179 22.7582 11.1667 22.6791L10.9072 22.6418C10.669 22.6105 10.478 22.5634 10.478 22.3947C10.478 22.2101 10.6581 22.0998 10.96 22.0998C11.2831 22.0998 11.596 22.221 11.7493 22.3156L11.9877 21.8732ZM26.7453 21.6097C26.4275 21.6097 26.2209 21.7574 26.0777 21.9788V21.673H25.5321V24.1905H26.0832V22.7792C26.0832 22.3626 26.2633 22.1312 26.6234 22.1312C26.7349 22.1312 26.8514 22.1469 26.9678 22.1945L27.1375 21.6784C27.0156 21.6308 26.8568 21.6097 26.7453 21.6097ZM19.6475 22.9317C19.6475 23.6956 20.1821 24.2538 20.9983 24.2538C21.3797 24.2538 21.6336 24.1694 21.9089 23.9536L21.6446 23.511C21.4379 23.6587 21.2208 23.7377 20.9819 23.7377C20.5424 23.7324 20.2192 23.4165 20.2192 22.9317C20.2192 22.4471 20.5424 22.1312 20.9819 22.1257C21.2208 22.1257 21.4379 22.2047 21.6446 22.3525L21.9089 21.9099C21.6336 21.6942 21.3797 21.6097 20.9983 21.6097C20.1821 21.6097 19.6475 22.1679 19.6475 22.9317ZM24.8064 22.9317V21.673H24.2559V21.9788C24.0806 21.752 23.8163 21.6097 23.4562 21.6097C22.7462 21.6097 22.1897 22.1632 22.1897 22.9317C22.1897 23.7011 22.7462 24.2538 23.4562 24.2538C23.8163 24.2538 24.0806 24.1115 24.2559 23.8849V24.1905H24.8064V22.9317ZM22.7565 22.9317C22.7565 22.4893 23.0481 22.1257 23.5247 22.1257C23.98 22.1257 24.2874 22.4737 24.2874 22.9317C24.2874 23.39 23.98 23.7377 23.5247 23.7377C23.0481 23.7377 22.7565 23.3743 22.7565 22.9317ZM16.1093 21.6097C15.367 21.6097 14.8482 22.1469 14.8482 22.9317C14.8482 23.7324 15.3883 24.2538 16.1462 24.2538C16.5276 24.2538 16.8767 24.1592 17.184 23.9011L16.9144 23.4954C16.7021 23.6637 16.4317 23.7589 16.1776 23.7589C15.8231 23.7589 15.4999 23.5955 15.4204 23.1422H17.3005C17.3059 23.0741 17.3115 23.0052 17.3115 22.9317C17.3059 22.1469 16.8185 21.6097 16.1093 21.6097ZM16.0983 22.0998C16.453 22.0998 16.6809 22.321 16.7391 22.7105H15.4253C15.4841 22.3469 15.706 22.0998 16.0983 22.0998ZM29.9185 22.9317V20.662H29.3674V21.9788C29.1929 21.752 28.928 21.6097 28.5677 21.6097C27.8577 21.6097 27.3012 22.1632 27.3012 22.9317C27.3012 23.7011 27.8577 24.2538 28.5677 24.2538C28.928 24.2538 29.1929 24.1115 29.3674 23.8849V24.1905H29.9185V22.9317ZM27.868 22.9317C27.868 22.4893 28.1598 22.1257 28.6362 22.1257C29.0921 22.1257 29.399 22.4737 29.399 22.9317C29.399 23.39 29.0921 23.7377 28.6362 23.7377C28.1598 23.7377 27.868 23.3743 27.868 22.9317ZM9.26486 22.9317V21.673H8.71437V21.9788C8.53972 21.752 8.27481 21.6097 7.91456 21.6097C7.20469 21.6097 6.64802 22.1632 6.64802 22.9317C6.64802 23.7011 7.20469 24.2538 7.91456 24.2538C8.27481 24.2538 8.53972 24.1115 8.71437 23.8849V24.1905H9.26486V22.9317ZM7.21502 22.9317C7.21502 22.4893 7.50662 22.1257 7.98321 22.1257C8.43851 22.1257 8.74585 22.4737 8.74585 22.9317C8.74585 23.39 8.43851 23.7377 7.98321 23.7377C7.50662 23.7377 7.21502 23.3743 7.21502 22.9317Z" fill="black"/>
<path fill-rule="evenodd" clip-rule="evenodd" d="M21.889 19.1809C19.8916 19.1809 18.0019 18.5657 16.403 17.3987L16.3947 17.3921C18.6169 15.5368 19.8846 12.8402 19.8846 9.94413C19.8846 7.04807 18.6169 4.35145 16.3947 2.49612L16.403 2.48968C18.0017 1.32269 19.8913 0.707523 21.889 0.707523C27.0105 0.707523 31.1771 4.8511 31.1771 9.94413C31.1771 15.0373 27.0105 19.1809 21.889 19.1809ZM0.822938 9.94413C0.822938 4.8511 4.98958 0.707523 10.1112 0.707523C12.1088 0.707523 13.9982 1.32254 15.5961 2.48937L15.6047 2.49627C13.383 4.35176 12.1154 7.04838 12.1154 9.94413C12.1154 12.84 13.383 15.5365 15.6047 17.392L15.5961 17.3989C13.998 18.5659 12.1086 19.1809 10.1112 19.1809C4.98958 19.1809 0.822938 15.0373 0.822938 9.94413ZM15.9997 17.0757C13.8439 15.3121 12.6093 12.7259 12.6093 9.94413C12.6093 7.16236 13.8439 4.57635 15.9997 2.81276C18.1559 4.57619 19.3909 7.16206 19.3909 9.94413C19.3909 12.7262 18.1559 15.3121 15.9997 17.0757ZM21.889 0.216614C19.7382 0.216614 17.707 0.895602 15.9997 2.17856C14.2932 0.895602 12.2621 0.216614 10.1112 0.216614C4.71742 0.216614 0.329224 4.58034 0.329224 9.94413C0.329224 15.3079 4.71742 19.6716 10.1112 19.6716C12.262 19.6716 14.293 18.9928 15.9997 17.7097C17.707 18.9927 19.7384 19.6716 21.889 19.6716C27.2826 19.6716 31.6708 15.3079 31.6708 9.94413C31.6708 4.58034 27.2826 0.216614 21.889 0.216614Z" fill="black"/>
</svg>
