<svg width="41" height="13" viewBox="0 0 41 13" fill="none" xmlns="http://www.w3.org/2000/svg">
<path fill-rule="evenodd" clip-rule="evenodd" d="M12.3372 0.360451L8.99111 8.78307L7.63762 1.62148C7.47884 0.822078 6.85165 0.360451 6.15511 0.360451H0.684973L0.608521 0.719762C1.73161 0.96246 3.00742 1.35381 3.78025 1.77255C4.25332 2.02834 4.38823 2.25191 4.54356 2.85995L7.1073 12.735H10.5048L15.7132 0.360451H12.3372ZM17.093 0.360451L14.4337 12.735H17.6485L20.3064 0.360451H17.093ZM35.5233 3.70328L36.4969 8.35004H33.8306L35.5233 3.70328ZM35.0514 0.360451C34.435 0.360451 33.9154 0.718556 33.6836 1.2682L28.8611 12.735H32.2346L32.9059 10.8876H37.0285L37.418 12.735H40.3913L37.7966 0.360451H35.0514ZM21.1833 4.22451C21.1607 6.00642 22.7781 7.00099 23.9967 7.59232C25.2486 8.19898 25.6691 8.58809 25.6643 9.1305C25.6547 9.96091 24.6655 10.3273 23.7396 10.3416C22.1246 10.3666 21.1856 9.90734 20.439 9.55991L19.8573 12.2711C20.6063 12.6149 21.9932 12.9146 23.4316 12.9277C26.8076 12.9277 29.0164 11.2683 29.0283 8.69505C29.0415 5.42956 24.4924 5.2487 24.5234 3.78906C24.5343 3.34638 24.9582 2.87425 25.8876 2.75402C26.3477 2.69339 27.6174 2.64688 29.057 3.30711L29.622 0.684106C28.8479 0.403341 27.8528 0.13446 26.614 0.13446C23.4362 0.13446 21.2013 1.81664 21.1833 4.22451Z" fill="black"/>
</svg>
